<?xml version="1.0" encoding="UTF-8" standalone="no"?>
<svg
   xmlns:dc="http://purl.org/dc/elements/1.1/"
   xmlns:cc="http://creativecommons.org/ns#"
   xmlns:rdf="http://www.w3.org/1999/02/22-rdf-syntax-ns#"
   xmlns:svg="http://www.w3.org/2000/svg"
   xmlns="http://www.w3.org/2000/svg"
   xmlns:sodipodi="http://sodipodi.sourceforge.net/DTD/sodipodi-0.dtd"
   xmlns:inkscape="http://www.inkscape.org/namespaces/inkscape"
   width="4096"
   height="4096"
   viewBox="0 0 4096 4096"
   version="1.1"
   id="svg25"
   sodipodi:docname="klm-logo.svg"
   inkscape:version="0.92.2 (5c3e80d, 2017-08-06)"
   inkscape:export-filename="G:\Users\suitedoalex\sites\klm-logo-0.png"
   inkscape:export-xdpi="96"
   inkscape:export-ydpi="96">
  <metadata
     id="metadata31">
    <rdf:RDF>
      <cc:Work
         rdf:about="">
        <dc:format>image/svg+xml</dc:format>
        <dc:type
           rdf:resource="http://purl.org/dc/dcmitype/StillImage" />
        <dc:title>Group</dc:title>
      </cc:Work>
    </rdf:RDF>
  </metadata>
  <defs
     id="defs29" />
  <sodipodi:namedview
     pagecolor="#ffffff"
     bordercolor="#666666"
     borderopacity="1"
     objecttolerance="10"
     gridtolerance="10"
     guidetolerance="10"
     inkscape:pageopacity="0"
     inkscape:pageshadow="2"
     inkscape:window-width="1600"
     inkscape:window-height="837"
     id="namedview27"
     showgrid="false"
     inkscape:zoom="0.08"
     inkscape:cx="339.35128"
     inkscape:cy="1848.6682"
     inkscape:window-x="-8"
     inkscape:window-y="-8"
     inkscape:window-maximized="1"
     inkscape:current-layer="svg25" />
  <!-- Generator: Sketch 52.6 (67491) - http://www.bohemiancoding.com/sketch -->
  <title
     id="title2">Group</title>
  <desc
     id="desc4">Created with Sketch.</desc>
  <g
     id="Current-header"
     transform="matrix(39.475129,0,0,39.475129,475.40619,1123.7649)"
     style="fill:none;fill-rule:evenodd;stroke:none;stroke-width:1"
     inkscape:export-filename="G:\Users\suitedoalex\sites\klm-logo-7.png"
     inkscape:export-xdpi="12.209129"
     inkscape:export-ydpi="12.209129">
    <g
       id="Group"
       style="fill:#00a1de">
      <polygon
         id="Path"
         points="22.408291,26.847407 14.939328,26.847407 7.469898,34.339845 7.469898,26.847407 8.8817842e-015,26.847407 8.8817842e-015,46.826151 7.469898,46.826151 7.469898,39.333244 14.939328,46.826151 24.898257,46.826151 13.693878,35.587493 " />
      <polygon
         id="polygon7"
         points="32.368155,41.788294 32.368155,26.847407 24.898257,26.847407 24.898257,46.826151 44.817985,46.826151 44.817985,41.788294 " />
      <polygon
         id="polygon9"
         points="79.67517,46.826151 79.67517,26.847407 67.22534,26.847407 63.491794,38.085597 59.756845,26.847407 47.307483,26.847407 47.307483,46.826151 54.777381,46.826151 54.777381,31.841274 59.756378,46.826151 67.22534,46.826151 72.205272,31.841274 72.205272,46.826151 " />
      <path
         d="m 34.857653,15.60828 c 2.406718,0 4.357441,-1.956177 4.357441,-4.370043 0,-2.4138663 -1.950723,-4.3709793 -4.357441,-4.3709793 -2.40625,0 -4.356973,1.956645 -4.356973,4.3709793 0,2.414334 1.950255,4.370043 4.356973,4.370043 z"
         id="path11"
         inkscape:connector-curvature="0" />
      <path
         d="m 40.460076,11.238237 c 0,2.414334 1.950723,4.370043 4.356973,4.370043 2.406718,0 4.357441,-1.956177 4.357441,-4.370043 0,-2.4138663 -1.950723,-4.3709793 -4.357441,-4.3709793 -2.40625,0 -4.356973,1.956645 -4.356973,4.3709793 z"
         id="path13"
         inkscape:connector-curvature="0" />
      <path
         d="m 29.255697,11.238237 c 0,-2.4143343 -1.950723,-4.3709793 -4.35744,-4.3709793 -2.40625,0 -4.356973,1.956645 -4.356973,4.3709793 0,2.414334 1.950723,4.370043 4.356973,4.370043 2.40625,0 4.35744,-1.955709 4.35744,-4.370043 z"
         id="path15"
         inkscape:connector-curvature="0" />
      <polygon
         id="polygon17"
         points="24.898257,16.856864 24.898257,21.851667 54.777381,21.851667 54.777381,16.856864 " />
      <path
         d="m 54.777381,6.8672577 c -2.407653,0 -4.357908,1.956645 -4.357908,4.3709793 0,2.414334 1.950255,4.370043 4.357908,4.370043 2.405315,0 4.356037,-1.956177 4.356037,-4.370043 0,-2.4138663 -1.950722,-4.3709793 -4.356037,-4.3709793 z"
         id="path19"
         inkscape:connector-curvature="0" />
      <polygon
         id="polygon21"
         points="38.592602,4.994382 38.592602,7.4920176 41.0821,7.4920176 41.0821,4.994382 43.572534,4.994382 43.572534,2.4972144 41.0821,2.4972144 41.0821,4.6798493e-005 38.592602,4.6798493e-005 38.592602,2.4972144 36.103104,2.4972144 36.103104,4.994382 " />
    </g>
  </g>
  <g
     transform="matrix(17.128271,0,0,17.128271,-1328.2779,4795.9482)"
     style="fill:#00a1de;fill-opacity:1;fill-rule:evenodd;stroke:none;stroke-width:1"
     id="Current-header-31"
     inkscape:export-filename="G:\Users\suitedoalex\sites\klm-logo-4.png"
     inkscape:export-xdpi="10.108259"
     inkscape:export-ydpi="10.108259">
    <g
       style="fill:#00a1de;fill-opacity:1"
       id="Group-8">
      <polygon
         id="Path-9"
         points="14.939328,26.847407 7.469898,34.339845 7.469898,26.847407 8.8817842e-015,26.847407 8.8817842e-015,46.826151 7.469898,46.826151 7.469898,39.333244 14.939328,46.826151 24.898257,46.826151 13.693878,35.587493 22.408291,26.847407 "
         style="fill:#00a1de;fill-opacity:1" />
      <polygon
         id="polygon7-0"
         points="32.368155,41.788294 32.368155,26.847407 24.898257,26.847407 24.898257,46.826151 44.817985,46.826151 44.817985,41.788294 "
         style="fill:#00a1de;fill-opacity:1" />
      <polygon
         id="polygon9-7"
         points="72.205272,46.826151 79.67517,46.826151 79.67517,26.847407 67.22534,26.847407 63.491794,38.085597 59.756845,26.847407 47.307483,26.847407 47.307483,46.826151 54.777381,46.826151 54.777381,31.841274 59.756378,46.826151 67.22534,46.826151 72.205272,31.841274 "
         style="fill:#00a1de;fill-opacity:1" />
      <path
         inkscape:connector-curvature="0"
         d="m 34.857653,15.60828 c 2.406718,0 4.357441,-1.956177 4.357441,-4.370043 0,-2.4138663 -1.950723,-4.3709793 -4.357441,-4.3709793 -2.40625,0 -4.356973,1.956645 -4.356973,4.3709793 0,2.414334 1.950255,4.370043 4.356973,4.370043 z"
         id="path11-7"
         style="fill:#00a1de;fill-opacity:1" />
      <path
         inkscape:connector-curvature="0"
         d="m 40.460076,11.238237 c 0,2.414334 1.950723,4.370043 4.356973,4.370043 2.406718,0 4.357441,-1.956177 4.357441,-4.370043 0,-2.4138663 -1.950723,-4.3709793 -4.357441,-4.3709793 -2.40625,0 -4.356973,1.956645 -4.356973,4.3709793 z"
         id="path13-3"
         style="fill:#00a1de;fill-opacity:1" />
      <path
         inkscape:connector-curvature="0"
         d="m 29.255697,11.238237 c 0,-2.4143343 -1.950723,-4.3709793 -4.35744,-4.3709793 -2.40625,0 -4.356973,1.956645 -4.356973,4.3709793 0,2.414334 1.950723,4.370043 4.356973,4.370043 2.40625,0 4.35744,-1.955709 4.35744,-4.370043 z"
         id="path15-4"
         style="fill:#00a1de;fill-opacity:1" />
      <polygon
         id="polygon17-3"
         points="24.898257,16.856864 24.898257,21.851667 54.777381,21.851667 54.777381,16.856864 "
         style="fill:#00a1de;fill-opacity:1" />
      <path
         inkscape:connector-curvature="0"
         d="m 54.777381,6.8672577 c -2.407653,0 -4.357908,1.956645 -4.357908,4.3709793 0,2.414334 1.950255,4.370043 4.357908,4.370043 2.405315,0 4.356037,-1.956177 4.356037,-4.370043 0,-2.4138663 -1.950722,-4.3709793 -4.356037,-4.3709793 z"
         id="path19-8"
         style="fill:#00a1de;fill-opacity:1" />
      <polygon
         id="polygon21-3"
         points="38.592602,4.994382 38.592602,7.4920176 41.0821,7.4920176 41.0821,4.994382 43.572534,4.994382 43.572534,2.4972144 41.0821,2.4972144 41.0821,4.6798493e-005 38.592602,4.6798493e-005 38.592602,2.4972144 36.103104,2.4972144 36.103104,4.994382 "
         style="fill:#00a1de;fill-opacity:1" />
    </g>
  </g>
  <g
     transform="matrix(34.421516,0,0,34.421516,351.49552,5188.7953)"
     style="fill:#00a1de;fill-opacity:1;fill-rule:evenodd;stroke:none;stroke-width:1"
     id="Current-header-3-0"
     inkscape:export-filename="G:\Users\suitedoalex\sites\klm-logo-4.png"
     inkscape:export-xdpi="10.108259"
     inkscape:export-ydpi="10.108259">
    <g
       style="fill:#00a1de;fill-opacity:1"
       id="Royal-Dutch-Airlines-2">
      <g
         id="Group-2-2"
         style="fill:#00a1de;fill-opacity:1">
        <path
           inkscape:connector-curvature="0"
           d="M 3.8462585,3.0589216 H 2.0573554 c -0.073427,0 -0.1173894,0.058966 -0.1173894,0.1174642 v 4.0354341 c 0,0.087981 0.028997,0.1174642 0.1318877,0.1174642 H 3.743835 c 1.4517007,0 2.3024235,-0.5868531 2.3024235,-2.2154407 0,-1.4970838 -0.8362245,-2.0549218 -2.2,-2.0549218 M 7.937585,11.775609 c 0,0.05897 -0.043963,0.102957 -0.1024234,0.102957 H 6.3245323 c -0.1173894,0 -0.161352,-0.04399 -0.2053146,-0.131972 L 4.0515731,8.5919074 C 4.0225765,8.5474489 3.9781463,8.4889508 3.8902211,8.4889508 H 2.0718537 c -0.087925,0 -0.1173894,0.029015 -0.1173894,0.1174642 v 3.125671 c 0,0.102957 -0.043963,0.14648 -0.1318878,0.14648 H 0.53222789 c -0.10289115,0 -0.13188775,-0.04399 -0.13188775,-0.14648 V 2.0616457 c 0,-0.1174642 0.0589286,-0.1614548 0.13188775,-0.1614548 H 4.1105017 c 1.9212585,0 3.5343112,0.7628154 3.5343112,3.1256713 0,1.7460518 -0.8652211,2.7587712 -1.9797194,3.1846375 0.542517,0.8507966 2.2584609,3.4925713 2.2584609,3.4925713 0.014031,0.02902 0.014031,0.04352 0.014031,0.07254"
           id="Fill-3-2"
           style="fill:#00a1de;fill-opacity:1" />
        <path
           inkscape:connector-curvature="0"
           d="m 13.318793,4.5560054 c -1.452169,0 -2.639626,0.7922985 -2.639626,3.2136525 0,2.11342 1.085034,3.0086751 2.66909,3.0086751 1.584056,0 2.683588,-0.9247382 2.683588,-3.0086751 0,-2.4358616 -1.217389,-3.2136525 -2.713052,-3.2136525 m 0,7.4695076 c -2.15557,0 -4.1942182,-1.379152 -4.1942182,-4.2558551 0,-2.9936996 1.8183672,-4.3728512 4.2091842,-4.3728512 2.405314,0 4.223681,1.3501365 4.223681,4.3728512 -4.67e-4,2.8472201 -1.965688,4.2558551 -4.238647,4.2558551"
           id="Fill-5-1"
           style="fill:#00a1de;fill-opacity:1" />
        <path
           inkscape:connector-curvature="0"
           d="m 24.374915,10.044065 c -0.425128,1.452625 -1.21739,3.375107 -2.405315,4.549281 -0.04396,0.05897 -0.116921,0.102957 -0.205314,0.102957 h -1.378274 c -0.05846,0 -0.11739,-0.04399 -0.11739,-0.102957 0,-0.01451 0.0145,-0.04399 0.029,-0.07301 0.425595,-0.396384 1.613053,-1.717037 1.745408,-2.494828 v -0.01451 c 0,-0.08845 -0.05846,-0.131971 -0.116922,-0.131971 h -0.80676 c -0.08839,0 -0.131887,-0.04399 -0.161352,-0.117465 L 18.274405,3.6172276 c 0,-0.014508 -0.0145,-0.029015 -0.0145,-0.029015 0,-0.058498 0.07343,-0.087981 0.146854,-0.087981 h 1.364243 c 0.08793,0 0.131888,0.014508 0.161352,0.1024887 l 2.2,6.9411527 c 0.029,0.102956 0.102424,0.117464 0.161352,0.117464 h 0.308206 c 0.05893,0 0.102424,-0.01451 0.131888,-0.102957 l 1.935757,-6.9556597 c 0.0145,-0.058498 0.07343,-0.1024887 0.146386,-0.1024887 h 1.305314 c 0.05846,0 0.102892,0.043991 0.102892,0.1024887 v 0.014508 z"
           id="Fill-7-6"
           style="fill:#00a1de;fill-opacity:1" />
        <path
           inkscape:connector-curvature="0"
           d="m 32.894303,7.799141 c 0,-0.087981 -0.029,-0.1469473 -0.161352,-0.1469473 h -1.97972 c -1.012075,0 -2.03818,0.1319717 -2.03818,1.365112 0,1.4526253 1.056037,1.6435633 1.965221,1.6435633 h 2.053146 c 0.131888,0 0.161352,-0.02901 0.161352,-0.146479 V 7.799141 Z m 1.540093,3.727032 c 0,0.117464 -0.029,0.17643 -0.17585,0.205913 -1.114498,0.117465 -2.742517,0.293427 -3.54881,0.293427 -1.642517,0 -3.578273,-0.528355 -3.578273,-3.0082073 0,-2.3773634 2.272959,-2.5678333 3.490348,-2.5678333 0.601446,0 1.803869,0.1169962 2.243963,0.1759623 0,-1.6880216 -0.982611,-1.9809802 -2.449277,-1.9809802 -0.777296,0 -1.495664,0.058966 -2.038181,0.1029567 h -0.04396 c -0.08793,0 -0.131888,-0.043991 -0.146854,-0.1174642 L 28.040646,3.7346918 v -0.014507 c 0,-0.073006 0.05893,-0.1174642 0.146854,-0.1174642 0.747832,-0.1024887 1.803869,-0.1759624 2.463775,-0.1759624 2.27296,0 3.783589,0.7043173 3.783589,2.9787241 v 5.1206907 z"
           id="Fill-9-6"
           style="fill:#00a1de;fill-opacity:1" />
        <path
           inkscape:connector-curvature="0"
           d="m 38.026233,11.878566 h -1.27585 c -0.08839,0 -0.131888,-0.02901 -0.131888,-0.14648 V 0.75549972 c 0,-0.10295669 0.04396,-0.13197175 0.131888,-0.14694727 l 1.261352,-0.14694727 c 0.117389,0 0.146853,0.0439906 0.146853,0.14694727 V 11.732086 c -4.67e-4,0.102489 -0.02993,0.14648 -0.132355,0.14648"
           id="Fill-11-5"
           style="fill:#00a1de;fill-opacity:1" />
        <path
           inkscape:connector-curvature="0"
           d="m 49.141284,3.0589216 h -2.082611 c -0.117389,0 -0.161352,0.058966 -0.161352,0.1469472 v 7.3080532 c 0,0.102956 0.029,0.146479 0.146854,0.146479 h 2.126573 c 1.730442,0 3.109184,-1.1002327 3.109184,-3.8594719 C 52.279464,4.0721089 51.01858,3.0589216 49.141284,3.0589216 m -0.278741,8.8196444 h -3.387458 c -0.102891,0 -0.131888,-0.02901 -0.131888,-0.14648 V 2.0616457 c 0,-0.1174642 0.04396,-0.1614548 0.131888,-0.1614548 h 3.592772 c 2.596131,0 4.781165,1.0267589 4.781165,4.6812533 0,4.0499418 -2.2,5.2971218 -4.986479,5.2971218"
           id="Fill-13-7"
           style="fill:#00a1de;fill-opacity:1" />
        <path
           inkscape:connector-curvature="0"
           d="m 62.367474,11.614622 c -0.894217,0.146947 -2.155569,0.352393 -3.167176,0.352393 -2.49324,0 -3.813053,-0.836757 -3.813053,-3.3456245 V 3.6467106 c 0,-0.087981 0.04443,-0.1464792 0.146854,-0.1464792 h 1.246853 c 0.102424,0 0.161352,0.043991 0.161352,0.1319717 v 5.062193 c 0,1.4381179 0.689371,2.0104629 2.185034,2.0104629 0.557016,0 1.202424,-0.04399 1.701446,-0.08798 0.08839,-0.01497 0.146854,-0.04446 0.146854,-0.146947 V 3.6317351 c 0,-0.1029567 0.029,-0.1319717 0.146386,-0.1319717 h 1.246386 c 0.102891,0 0.16182,0.043991 0.16182,0.1319717 v 7.7919489 c -9.36e-4,0.102489 -0.04537,0.175963 -0.162756,0.190938"
           id="Fill-15-5"
           style="fill:#00a1de;fill-opacity:1" />
        <path
           inkscape:connector-curvature="0"
           d="m 69.068495,11.688096 c -0.029,0.08798 -0.07343,0.116996 -0.176318,0.131972 -0.630442,0.07301 -0.997109,0.131971 -1.510162,0.131971 -1.393239,0 -2.009183,-0.616336 -2.009183,-2.0984442 V 4.6439865 c 0,-0.1029567 -0.04396,-0.1469472 -0.146854,-0.1469472 h -0.997109 c -0.102891,0 -0.146386,-0.058498 -0.146386,-0.1614548 V 3.6312671 c 0,-0.087981 0.04396,-0.1319717 0.146386,-0.1319717 h 1.011607 c 0.08792,0 0.131888,-0.044459 0.131888,-0.1469473 V 1.430334 c 0,-0.1029567 0.029,-0.1469473 0.146386,-0.1759623 l 1.246854,-0.1319718 c 0.102423,0 0.161352,0.043991 0.161352,0.1464793 v 2.0834689 c 0,0.1029567 0.029,0.1469473 0.146386,0.1469473 h 1.584056 c 0.117389,0 0.146386,0.043991 0.146386,0.1464793 V 4.350092 c 0,0.088449 -0.029,0.1319717 -0.146386,0.1319717 h -1.584056 c -0.102891,0 -0.146386,0.058498 -0.146386,0.1614548 v 4.8132251 c 0,0.8507964 0.131887,1.2031894 1.231888,1.2031894 h 0.894685 c 0.131888,0 0.146854,0.0585 0.146854,0.146947 z"
           id="Fill-17-6"
           style="fill:#00a1de;fill-opacity:1" />
        <path
           inkscape:connector-curvature="0"
           d="m 76.679167,11.805092 c -0.542517,0.05897 -1.451701,0.17643 -2.214031,0.17643 -2.742517,0 -4.428996,-1.335629 -4.428996,-4.3733189 0,-3.1401789 2.228996,-4.1968889 4.41403,-4.1968889 0.659907,0 1.613053,0.087981 2.170536,0.1614548 0.102891,0.014508 0.146386,0.043991 0.146386,0.1614548 l -0.146386,0.8217816 c -0.0145,0.088449 -0.04443,0.1469472 -0.131888,0.1469472 h -0.029 c -0.557483,-0.044458 -1.114966,-0.058966 -1.78937,-0.058966 -1.788903,0 -3.035289,0.777791 -3.035289,2.9497091 0,2.2893823 1.246386,3.0671733 3.035289,3.0671733 0.777296,0 1.466666,-0.02901 2.009183,-0.05897 h 0.04443 c 0.08792,0 0.116921,0.04446 0.116921,0.131972 v 0.92427 c -4.67e-4,0.08845 -0.02993,0.117464 -0.161819,0.146947"
           id="Fill-19-8"
           style="fill:#00a1de;fill-opacity:1" />
        <path
           inkscape:connector-curvature="0"
           d="m 85.902891,11.732086 c 0,0.117465 -0.029,0.14648 -0.146386,0.14648 h -1.260884 c -0.11739,0 -0.146386,-0.02901 -0.146386,-0.14648 V 6.8748707 c 0,-1.585065 -0.865689,-2.2159086 -2.287926,-2.2159086 -0.865688,0 -1.290816,0.029015 -1.847831,0.1029566 -0.102891,0.014508 -0.146854,0.043991 -0.146854,0.1469473 v 6.823688 c 0,0.102957 -0.029,0.14648 -0.131888,0.14648 h -1.276318 c -0.116921,0 -0.131887,-0.02902 -0.131887,-0.14648 V 0.77047524 c 0,-0.11746422 0.02993,-0.14647929 0.131887,-0.14647929 l 1.261352,-0.1614548 c 0.102892,0 0.146387,0.0290151 0.146387,0.1614548 V 3.5002314 c 0,0.1024887 0.07296,0.1024887 0.190348,0.1024887 0.396131,-0.058498 1.378742,-0.1614549 2.053614,-0.1614549 2.463776,0 3.592772,1.0127194 3.592772,3.5660452 z"
           id="Fill-21-7"
           style="fill:#00a1de;fill-opacity:1" />
        <path
           inkscape:connector-curvature="0"
           d="m 97.295748,3.1763858 c 0,-0.058498 -0.05893,-0.1174642 -0.131888,-0.1174642 h -1.143962 c -0.08746,0 -0.146386,0.029015 -0.161352,0.1174642 l -1.056037,3.9479209 v 0.029015 c 0,0.058498 0.04443,0.087981 0.102891,0.087981 h 3.372959 c 0.04443,0 0.07343,-0.029015 0.07343,-0.073006 v -0.043991 z m 3.886482,8.5992232 c 0,0.05897 -0.044,0.102957 -0.10289,0.102957 h -1.305318 c -0.08792,0 -0.17585,-0.04399 -0.190348,-0.14648 L 98.718452,8.5329413 C 98.703486,8.4449602 98.674022,8.4009696 98.586565,8.4009696 H 94.61216 c -0.102891,0 -0.131888,0.029015 -0.161352,0.1174642 l -0.865689,3.1991452 c -0.029,0.131972 -0.08793,0.161455 -0.190349,0.161455 h -1.158928 c -0.08792,0 -0.161352,-0.04399 -0.161352,-0.131972 0,-0.01451 0.0145,-0.02901 0.0145,-0.04399 l 2.566199,-9.6704404 c 0.0145,-0.073474 0.102891,-0.1319718 0.176318,-0.1319718 h 3.577806 c 0.08792,0 0.176318,0.058498 0.205782,0.1614549 l 2.551695,9.6414253 c 4.7e-4,0.02855 0.0154,0.04306 0.0154,0.07207 z"
           id="Fill-23-0"
           style="fill:#00a1de;fill-opacity:1" />
        <path
           inkscape:connector-curvature="0"
           d="m 104.0108,11.878566 h -1.27632 c -0.0879,0 -0.13189,-0.04399 -0.13189,-0.14648 V 3.6467106 c 0,-0.087981 0.0444,-0.1464792 0.14733,-0.1464792 h 1.24638 c 0.11739,0 0.14685,0.043991 0.14685,0.1319717 v 8.1003509 c 0,0.102021 -0.0295,0.146012 -0.13235,0.146012 z m 0.13235,-9.9053695 c 0,0.1029567 -0.029,0.1464793 -0.13188,0.1464793 h -1.27632 c -0.073,0 -0.13189,-0.043991 -0.13189,-0.1614548 V 0.75503173 c 0,-0.10295668 0.0444,-0.14694727 0.13189,-0.14694727 h 1.27632 c 0.10289,0 0.13188,0.0439906 0.13188,0.14694727 z"
           id="Fill-25-5"
           style="fill:#00a1de;fill-opacity:1" />
        <path
           inkscape:connector-curvature="0"
           d="m 110.00842,4.6584941 c -0.64541,0 -1.129,0.044458 -1.75991,0.088449 -0.11739,0.014508 -0.16135,0.058498 -0.16135,0.1469473 v 6.8381956 c 0,0.102957 -0.029,0.14648 -0.13189,0.14648 h -1.27632 c -0.073,0 -0.13188,-0.04399 -0.13188,-0.14648 V 3.9546447 c 0,-0.1029567 0.0444,-0.1614548 0.14732,-0.1904698 0.99711,-0.1319718 2.1406,-0.2938946 3.32853,-0.3378852 0.0884,0 0.13188,0.058498 0.13188,0.1469473 v 0.9682608 c 0,0.073474 -0.044,0.1169963 -0.14638,0.1169963"
           id="Fill-27-8"
           style="fill:#00a1de;fill-opacity:1" />
        <path
           inkscape:connector-curvature="0"
           d="m 113.10217,11.878566 h -1.27632 c -0.0879,0 -0.13189,-0.02901 -0.13189,-0.14648 V 0.75549972 c 0,-0.10295669 0.0444,-0.13197175 0.13189,-0.14694727 l 1.26135,-0.14694727 c 0.11739,0 0.14639,0.0439906 0.14639,0.14694727 V 11.732086 c 4.7e-4,0.102489 -0.0285,0.14648 -0.13142,0.14648"
           id="Fill-29-5"
           style="fill:#00a1de;fill-opacity:1" />
        <path
           inkscape:connector-curvature="0"
           d="m 117.07564,11.878566 h -1.27632 c -0.0879,0 -0.13189,-0.04399 -0.13189,-0.14648 V 3.6467106 c 0,-0.087981 0.0444,-0.1464792 0.14686,-0.1464792 h 1.24638 c 0.11739,0 0.14639,0.043991 0.14639,0.1319717 v 8.1003509 c 4.7e-4,0.102021 -0.0285,0.146012 -0.13142,0.146012 z m 0.13189,-9.9053695 c 0,0.1029567 -0.029,0.1464793 -0.13189,0.1464793 h -1.27632 c -0.073,0 -0.13189,-0.043991 -0.13189,-0.1614548 V 0.75503173 c 0,-0.10295668 0.0444,-0.14694727 0.13189,-0.14694727 h 1.27632 c 0.10289,0 0.13189,0.0439906 0.13189,0.14694727 z"
           id="Fill-31-6"
           style="fill:#00a1de;fill-opacity:1" />
        <path
           inkscape:connector-curvature="0"
           d="m 126.79792,11.878566 h -1.27632 c -0.10289,0 -0.13189,-0.02901 -0.13189,-0.14648 V 6.7283914 c 0,-1.61408 -0.80676,-2.0694293 -2.39035,-2.0694293 -0.49855,0 -1.23189,0.058966 -1.70098,0.1029566 -0.11739,0 -0.13188,0.029015 -0.13188,0.1469473 v 6.823688 c 0,0.117464 -0.0444,0.14648 -0.14686,0.14648 h -1.27585 c -0.10289,0 -0.14638,-0.02902 -0.14638,-0.14648 V 3.9551127 c 0,-0.1174642 0.029,-0.1464793 0.16135,-0.1759623 1.17343,-0.1764303 2.49324,-0.3378852 3.3,-0.3378852 2.40485,0 3.87151,0.7043174 3.87151,3.1846375 v 5.1066513 c -4.7e-4,0.102021 -0.0299,0.146012 -0.13235,0.146012"
           id="Fill-33-7"
           style="fill:#00a1de;fill-opacity:1" />
        <path
           inkscape:connector-curvature="0"
           d="m 132.61828,4.6149715 c -1.4372,0 -2.36135,0.7922985 -2.36135,2.421354 0,0.1174642 0.0299,0.1469473 0.13189,0.1469473 h 4.54638 c 0.10289,0 0.16136,-0.014508 0.16136,-0.1319718 -0.044,-1.644031 -1.01161,-2.4363295 -2.47828,-2.4363295 m 3.91548,3.7275 h -6.12951 c -0.0884,0 -0.13189,0.014508 -0.13189,0.1464793 0.0585,1.8490082 1.30485,2.2598992 3.10872,2.2598992 0.6744,0 1.42224,-0.05897 2.21403,-0.117464 0.0589,0 0.13189,0.01451 0.13189,0.102489 v 0.02948 l -0.13189,0.894787 c -0.029,0.102956 -0.073,0.102956 -0.17585,0.131972 -0.71837,0.102956 -1.59855,0.190937 -2.5372,0.190937 -2.50774,0 -4.19422,-1.042202 -4.19422,-4.3143528 0,-3.1551544 1.81837,-4.2263719 4.01837,-4.2263719 2.68359,0 3.95944,1.4966158 3.95944,4.7547269 4.6e-4,0.1029567 -0.0435,0.1474153 -0.13189,0.1474153"
           id="Fill-35-2"
           style="fill:#00a1de;fill-opacity:1" />
        <path
           inkscape:connector-curvature="0"
           d="m 140.771,11.981522 c -0.70387,0 -1.52559,-0.07347 -2.39035,-0.220421 -0.11739,-0.02901 -0.14638,-0.0585 -0.14638,-0.161454 v -0.895256 c 0,-0.07301 0.044,-0.117464 0.11739,-0.117464 h 0.044 c 0.39613,0.01451 1.33431,0.08845 2.11208,0.08845 1.04153,0 2.28792,-0.04399 2.28792,-1.1886814 0,-1.9809802 -4.64881,-1.085725 -4.64881,-3.9179698 0,-1.7315443 1.81884,-2.1424351 3.40242,-2.1424351 0.70387,0 1.58359,0.1174643 2.2435,0.2204209 0.10289,0.029015 0.16182,0.087981 0.16182,0.1614548 l -0.14732,0.8507967 c 0,0.058966 -0.044,0.1029566 -0.13189,0.1029566 h -0.029 c -0.46909,-0.043991 -1.21692,-0.1319717 -2.09664,-0.1319717 -0.86569,0 -1.84783,0.043991 -1.84783,0.9537533 0,1.5700894 4.63384,0.8662401 4.63384,3.7714906 -10e-4,1.8630481 -1.42364,2.6263311 -3.56471,2.6263311"
           id="Fill-37-3"
           style="fill:#00a1de;fill-opacity:1" />
      </g>
    </g>
  </g>
</svg>
